<?xml version="1.0" encoding="UTF-8"?>
<svg width="512px" height="512px" viewBox="0 0 512 512" version="1.1" xmlns="http://www.w3.org/2000/svg" xmlns:xlink="http://www.w3.org/1999/xlink">
    <!-- Generator: Sketch 48.2 (47327) - http://www.bohemiancoding.com/sketch -->
    <title>v2 logo finished</title>
    <desc>Created with Sketch.</desc>
    <defs></defs>
    <g id="Love-First-logo" stroke="none" stroke-width="1" fill="none" fill-rule="evenodd">
        <g id="v2-logo-finished" fill="#FA1982">
            <g id="Love-First-logo" transform="translate(62.000000, 135.000000)">
                <path d="M208.270327,37.7250374 C207.171565,38.652012 175.883098,65.048329 168.1066,71.5735855 C160.190807,78.2157241 159.081008,88.0644447 165.947865,96.2480452 C172.814721,104.431646 182.706532,105.048919 190.622324,98.4067807 C209.14779,82.8620695 208.326602,38.9281285 208.300573,37.7252036 L217.939427,28.7448145 C224.503943,22.8295998 230.443267,20.3389831 239.195955,20.3389831 L257.013928,20.3389831 C267.240655,20.3389831 273.078704,25.2240667 274.058864,34.5269305 C279.03091,24.9040819 290.920261,19.823213 304.947489,19.823213 C314.609676,19.823213 328.016962,26.0442936 341.936293,23.4501722 C342.261587,23.2852609 342.581342,23.1669773 342.893004,23.1010672 L343.585881,23.1010672 C343.676134,23.0796396 343.766404,23.0578184 343.856689,23.0355997 L343.856689,8.58485604 C343.856689,2.96567754 346.820374,3.55271368e-15 352.435778,3.55271368e-15 L361.482817,3.55271368e-15 C367.09822,3.55271368e-15 370.061905,2.96567754 370.061905,8.58485604 L370.061905,23.1010672 L378.329027,23.1010672 C383.944431,23.1010672 386.908116,26.0667447 386.908116,31.6859232 L386.908116,35.5881305 C386.908116,41.207309 383.944431,44.1729865 378.485011,44.1729865 L370.061905,44.1729865 L370.061905,68.52276 C370.061905,75.3906449 374.585425,78.0441458 379.420911,78.668499 C385.660249,79.4489405 388,81.322 388,87.253355 L388,94.2773282 C388,100.676948 384.100414,102.862184 376.925176,102.862184 C365.070436,102.862184 343.076772,97.399094 343.076772,73.5175854 L343.076772,44.1729865 L333.73702,44.1729865 C333.53077,44.1729865 333.344792,44.1446842 333.178164,44.090151 C328.08314,44.0405812 322.25759,43.539327 318.582147,43.0168983 C314.642401,42.4569015 309.159041,40.8951324 303.855605,40.8951324 C298.084218,40.8951324 296.680367,42.9242802 296.680367,45.1095163 C296.680367,54.3187255 334.272374,49.6360768 334.272374,77.575881 C334.272374,92.560357 321.793699,103.954802 301.203886,103.954802 C291.979412,103.954802 280.92759,100.665259 274.206709,101.665476 L274.206709,196.238789 L304.841118,196.238789 C316.094574,196.238789 322.033898,202.154004 322.033898,213.361779 L322.033898,225.814863 C322.033898,237.022638 316.094574,242.937853 304.841118,242.937853 L190.430978,242.937853 C179.177521,242.937853 173.238197,237.022638 173.238197,225.814863 L173.238197,213.361779 C173.238197,202.154004 179.177521,196.238789 190.430978,196.238789 L220.752791,196.238789 L220.752791,103.463316 C220.752791,95.0574849 221.065387,86.3403263 221.065387,86.3403263 L220.802775,86.3403263 C211.626695,161.094124 110.734463,241.80791 110.734463,241.80791 C110.734463,241.80791 0,153.220339 0,75.7062147 C1.00012822e-15,43.039548 21.5953831,20.3389831 55.3672316,20.3389831 C89.1390802,20.3389831 110.734463,43.039548 110.734463,75.7062147 C110.734463,43.039548 132.329846,20.3389831 166.101695,20.3389831 C184.084231,20.3389831 198.614428,26.7751737 208.27032,37.7250432 Z M274.206709,56.6130791 L274.206709,81.5093348 C282.8628,79.4980819 296.29757,82.8828829 301.82782,82.8828829 C307.28724,82.8828829 309.159041,80.8537351 309.159041,78.3563224 C309.159041,70.5080891 282.759513,72.4156131 274.206709,56.6130791 Z" id="Combined-Shape"></path>
            </g>
        </g>
    </g>
</svg>