<?xml version="1.0" encoding="UTF-8" standalone="no"?>
<!DOCTYPE svg PUBLIC "-//W3C//DTD SVG 1.1//EN" "http://www.w3.org/Graphics/SVG/1.1/DTD/svg11.dtd">
<svg version="1.1" xmlns="http://www.w3.org/2000/svg" xmlns:xlink="http://www.w3.org/1999/xlink" preserveAspectRatio="xMidYMid meet" viewBox="0 0 512 512"><path d="M270.27 172.725l-40.164 33.849c-7.916 6.642-9.026 16.491-2.159 24.674s16.759 8.801 24.674 2.159c18.525-15.545 17.704-59.479 17.678-60.682l9.639-8.98c6.565-5.915 12.504-8.406 21.257-8.406h17.818c10.227 0 16.065 4.885 17.045 14.188 4.972-9.623 16.861-14.704 30.889-14.704 9.662 0 23.069 6.221 36.989 3.627.325-.165.645-.283.957-.349h.693l.271-.065v-14.451c0-5.619 2.964-8.585 8.579-8.585h9.047c5.615 0 8.579 2.966 8.579 8.585v14.516h8.267c5.615 0 8.579 2.966 8.579 8.585v3.902c0 5.619-2.964 8.585-8.423 8.585h-8.423v24.35c0 6.868 4.524 9.521 9.359 10.146 6.239.78 8.579 2.654 8.579 8.585v7.024c0 6.4-3.9 8.585-11.075 8.585-11.855 0-33.848-5.463-33.848-29.345v-29.345h-9.34a1.79 1.79 0 0 1-.559-.083c-5.095-.05-10.921-.551-14.596-1.073-3.94-.56-9.423-2.122-14.727-2.122-5.771 0-7.175 2.029-7.175 4.214 0 9.209 37.592 4.527 37.592 32.466 0 14.984-12.479 26.379-33.068 26.379-9.224 0-20.276-3.29-26.997-2.289v94.573h30.634c11.253 0 17.193 5.915 17.193 17.123v12.453c0 11.208-5.939 17.123-17.193 17.123h-114.41c-11.253 0-17.193-5.915-17.193-17.123v-12.453c0-11.208 5.939-17.123 17.193-17.123h30.322v-92.775c0-8.406.313-17.123.313-17.123h-.263c-9.176 74.754-110.068 155.468-110.068 155.468S62 288.22 62 210.706c0-32.667 21.595-55.367 55.367-55.367s55.367 22.701 55.367 55.367c0-32.667 21.595-55.367 55.367-55.367 17.983 0 32.513 6.436 42.169 17.386zm65.936 18.888v24.896c8.656-2.011 22.091 1.374 27.621 1.374 5.459 0 7.331-2.029 7.331-4.527 0-7.848-26.4-5.941-34.952-21.743z" fill="#fa1982" fill-rule="evenodd"/></svg>